<svg xmlns="http://www.w3.org/2000/svg" viewBox="0 0 512 512">
    <rect width="512" height="512" rx="115" fill="#148b7f"/>
    
    <path d="M256 436.667l-35.093-31.915C136.533 328.293 85.333 281.872 85.333 223.333c0-47.872 37.462-85.333 85.334-85.333 27.05 0 53.034 12.672 69.333 32.512 16.299-19.84 42.283-32.512 69.333-32.512 47.872 0 85.334 37.461 85.334 85.333 0 58.539-51.2 104.96-135.574 181.547L256 436.667z" fill="#0d635a" opacity="0.3" transform="translate(0, 8)"/>
    
    <path d="M256 426.667l-35.093-31.915C136.533 318.293 85.333 271.872 85.333 213.333c0-47.872 37.462-85.333 85.334-85.333 27.05 0 53.034 12.672 69.333 32.512 16.299-19.84 42.283-32.512 69.333-32.512 47.872 0 85.334 37.461 85.334 85.333 0 58.539-51.2 104.96-135.574 181.547L256 426.667z" fill="#ffffff"/>
    
    <path d="M140 213.333 L180 213.333 L210 140 L260 320 L290 190 L320 240 L340 213.333 L372 213.333" fill="none" stroke="#148b7f" stroke-width="28" stroke-linecap="round" stroke-linejoin="round"/>
</svg>
