<svg xmlns="http://www.w3.org/2000/svg" viewBox="0 0 512 512"> 
    <defs>
        <linearGradient id="gradient" x1="0%" y1="0%" x2="100%" y2="100%">
            <stop offset="0%" style="stop-color:#1a8c7d;stop-opacity:1" />
            <stop offset="100%" style="stop-color:#0d635a;stop-opacity:1" />
        </linearGradient>
        <filter id="shadow" x="-50%" y="-50%" width="200%" height="200%">
            <feDropShadow dx="2" dy="2" stdDeviation="3" flood-color="#000000" flood-opacity="0.3"/>
        </filter>
    </defs>
    <rect width="512" height="512" rx="115" fill="url(#gradient)" filter="url(#shadow)"/>
    <path d="M256 436.667l-35.093-31.915C136.533 328.293 85.333 281.872 85.333 223.333c0-47.872 37.462-85.333 85.334-85.333 27.05 0 53.034 12.672 69.333 32.512 16.299-19.84 42.283-32.512 69.333-32.512 47.872 0 85.334 37.461 85.334 85.333 0 58.539-51.2 104.96-135.574 181.547L256 436.667z" fill="#ffffff" opacity="0.9" transform="translate(0, 8)"/>
    <path d="M256 426.667l-35.093-31.915C136.533 318.293 85.333 271.872 85.333 213.333c0-47.872 37.462-85.333 85.334-85.333 27.05 0 53.034 12.672 69.333 32.512 16.299-19.84 42.283-32.512 69.333-32.512 47.872 0 85.334 37.461 85.334 85.333 0 58.539-51.2 104.96-135.574 181.547L256 426.667z" fill="url(#gradient)"/>
    <path d="M140 213.333 L180 213.333 L210 140 L260 320 L290 190 L320 240 L340 213.333 L372 213.333" fill="none" stroke="#ffffff" stroke-width="28" stroke-linecap="round" stroke-linejoin="round"/>
</svg>

